<svg xmlns="http://www.w3.org/2000/svg" width="1024" height="684"><path fill="#dfdde2" d="M0 0h1024v684H0z"/><g transform="matrix(4 0 0 4 2 2)"><path fill="#808d94" fill-opacity=".502" d="M155 65l-1 121L98 62z"/><path fill-opacity=".502" d="M154 42v42h-4V42z"/><ellipse fill="#fff" fill-opacity=".502" rx="1" ry="1" transform="matrix(41.32834 17.48762 -24.8132 58.64084 53.291 78.846)"/><path fill="#000d0d" fill-opacity=".502" d="M102 46h3v86h-3z"/><ellipse fill="#fff" fill-opacity=".502" rx="1" ry="1" transform="rotate(157.425 93.083 61.646) scale(45.05051 63.78272)"/><ellipse fill="#b2aeb8" fill-opacity=".502" rx="1" ry="1" transform="rotate(-178.228 52.734 82.195) scale(255 13.53022)"/><path fill="#001f41" fill-opacity=".502" d="M126.717 92.977l16.363-13.19-36.692-12.237 23.82 29.777z"/><path fill-opacity=".502" d="M151 57h3v79h-3z"/><path fill="#fffeff" fill-opacity=".502" d="M136 84h14v82h-14z"/><path fill="#fff" fill-opacity=".502" d="M110.374 79.988l26.793 20.932-5.541 7.092-26.793-20.932zM62 85h41v50H62z"/><path fill="#394746" fill-opacity=".502" d="M121 128l13-5-16-4z"/><path fill="#002629" fill-opacity=".502" d="M151 36h3v109h-3z"/><ellipse fill="#faf8f8" fill-opacity=".502" cx="130" cy="13" rx="33" ry="33"/><path fill="#0c2d31" fill-opacity=".502" d="M109.205 64.628l35.695 4.188-44.4-8.093 22.382 26.356z"/><ellipse fill="#aba8b1" fill-opacity=".502" rx="1" ry="1" transform="rotate(116.012 -50.626 81.037) scale(25.03216 129.9073)"/><path fill="#6b7b7d" fill-opacity=".502" d="M102 59l7-33h-9z"/><path fill="#f2eaeb" fill-opacity=".502" d="M110 114l34 2 3-41z"/><path fill="#000907" fill-opacity=".502" d="M104 97h2v40h-2z"/><ellipse fill="#063247" fill-opacity=".502" rx="1" ry="1" transform="matrix(-11.9057 8.12517 -1.4016 -2.05374 136.408 81.19)"/><path fill="#fffffe" fill-opacity=".502" d="M104 30h12v32h-12z"/><path fill="#d6d2d9" fill-opacity=".502" d="M95 158l19-38 98 66z"/><ellipse fill="#fbf8fc" fill-opacity=".502" rx="1" ry="1" transform="rotate(21.79 -163.922 557.834) scale(31.49561 46.77439)"/><path fill="#173b45" fill-opacity=".502" d="M145.384 70.285L102.38 64.07l-3.261-.494 52.368 4.744z"/><path fill="#000b0e" fill-opacity=".502" d="M100.794 32.545l.999-.053 1.413 26.963-.999.053z"/></g></svg>