<svg xmlns="http://www.w3.org/2000/svg" width="1024" height="684"><path fill="#ddd8dc" d="M0 0h1024v684H0z"/><g transform="matrix(4 0 0 4 2 2)"><path fill="#000002" fill-opacity=".502" d="M108 94l43 6-19 22z"/><ellipse fill="#8d4813" fill-opacity=".502" rx="1" ry="1" transform="matrix(.32242 -5.10165 35.77274 2.26084 121.276 42.911)"/><path fill="#333438" fill-opacity=".502" d="M128.536 152.496l-48.921-12.842 49.42 3.16 41.268-1.427z"/><path fill="#002d42" fill-opacity=".502" d="M101 84h62v4h-62z"/><ellipse fill="#faf8fc" fill-opacity=".502" cx="203" cy="89" rx="43" ry="63"/><ellipse fill="#f7f7fb" fill-opacity=".502" rx="1" ry="1" transform="rotate(7.621 -557.14 446.265) scale(41.84312 63.51251)"/><ellipse fill="#aeadbb" fill-opacity=".502" cx="106" cy="170" rx="255" ry="11"/><ellipse fill="#ffbd88" fill-opacity=".502" rx="1" ry="1" transform="rotate(92.233 49.287 78.854) scale(10.31612 43.50462)"/><path fill="#023661" fill-opacity=".502" d="M134 120l-14-11 45-24z"/><path fill="#848788" fill-opacity=".502" d="M141.37 66.159l-52.876-3.71 10.246-7.692 69.92 8.53z"/><path fill="#2b4a59" fill-opacity=".502" d="M106.655 85.186l27.522 39.716L94.63 80.7l45.186 7.525z"/><path fill="#dddde6" fill-opacity=".502" d="M125.85 100.384l-1.341-10.918 47.642-5.85 1.34 10.918z"/><path fill="#3a2820" fill-opacity=".502" d="M106 45h48v3h-48z"/><ellipse fill="#f0ebf0" fill-opacity=".502" cx="125" cy="12" rx="78" ry="12"/><path fill="#6885a2" fill-opacity=".502" d="M143.342 116.579l-18.158-9.015-41.636-34.129 35.517 17.48z"/><path fill="#363335" fill-opacity=".502" d="M154.276 142.076l.348 4.988-40.9 2.86-.348-4.988z"/><path fill="#a97754" fill-opacity=".502" d="M171.187 38.36l-5.655 6.58-7.888 2.07-73.754-3.125z"/><path fill="#f2f2f5" fill-opacity=".502" d="M181 59l-58 84 148-31z"/><path fill="#f7f8fb" fill-opacity=".502" d="M128.028 57.367l-6.238 29.16 16.31-34.554-38.085-6.897z"/><path fill="#d9d8e1" fill-opacity=".502" d="M91 147h126v18H91z"/><path fill="#efeef3" fill-opacity=".502" d="M141 143l-37-52-120 17z"/><ellipse fill="#b7b5c0" fill-opacity=".502" rx="1" ry="1" transform="matrix(61.59584 23.1354 -5.65078 15.04466 34.624 170)"/><path fill="#3e4d4e" fill-opacity=".502" d="M154.484 84.466l13.213-5.677-28.775 34.3 25.603-27.566z"/><path fill="#2e2c32" fill-opacity=".502" d="M108.44 145.837L88.584 139l.976-2.837L109.416 143z"/><path fill="#fdfcfe" fill-opacity=".502" d="M118 76h27v9h-27z"/></g></svg>