<svg xmlns="http://www.w3.org/2000/svg" width="1024" height="684"><path fill="#e3e1e5" d="M0 0h1024v684H0z"/><g transform="matrix(4 0 0 4 2 2)"><ellipse fill-opacity=".502" cx="156" cy="90" rx="3" ry="54"/><path fill="#0c2946" fill-opacity=".502" d="M98 63l59 7-34 27z"/><ellipse fill-opacity=".502" cx="96" cy="84" rx="2" ry="58"/><ellipse fill="#fdfafc" fill-opacity=".502" cx="234" cy="65" rx="75" ry="75"/><ellipse fill="#fdfcfe" fill-opacity=".502" rx="1" ry="1" transform="rotate(125.768 7.624 40.503) scale(76.76789 36.41173)"/><path fill="#9f9d9d" fill-opacity=".502" d="M110 101h23v41h-23z"/><ellipse fill="#fff" fill-opacity=".502" rx="1" ry="1" transform="matrix(-.4086 4.59494 -17.79599 -1.58247 128.796 74.817)"/><ellipse fill="#1d3834" fill-opacity=".502" cx="156" cy="102" rx="3" ry="54"/><ellipse fill="#fcfafb" fill-opacity=".502" cx="132" cy="7" rx="41" ry="41"/><ellipse fill="#182d4f" fill-opacity=".502" rx="1" ry="1" transform="rotate(47.326 -38.25 181.424) scale(13.67181 4.3321)"/><path fill="#b5b6b9" fill-opacity=".502" d="M158 39h8v115h-8z"/><ellipse fill="#c5bfca" fill-opacity=".502" cx="104" cy="170" rx="252" ry="10"/><ellipse fill="#f9f7fa" fill-opacity=".502" rx="1" ry="1" transform="rotate(121.894 1.044 67.27) scale(47.98738 29.33309)"/><path fill="#4c514f" fill-opacity=".502" d="M124 130l-9-11 19 3z"/><path fill="#082c57" fill-opacity=".502" d="M122.634 80.662l18.509-.683 5.45-2.093-13.718 14.64z"/><path fill="#122824" fill-opacity=".502" d="M94.365 99.498l-.999-.035 2.269-64.96.999.034z"/><path fill="#051010" fill-opacity=".502" d="M153.333 144.564l-.663-18.988 3.997-.14.663 18.988z"/><path fill="#6e7d7f" fill-opacity=".502" d="M175.538 31.58l-2.496-2.71-17.236 22.802 2.116-16.02z"/><path fill="#f2f0f3" fill-opacity=".502" d="M165.31 137.672l-22.77 16.015L271 150.415 167.11-8.159z"/><path fill="#979696" fill-opacity=".502" d="M102.166 99.655l-5.37 3.526 46.12 6.817 12.295-3.526z"/><path fill="#ebe9eb" fill-opacity=".502" d="M97 15h58v49H97z"/><ellipse fill="#938f90" fill-opacity=".502" cx="126" cy="52" rx="11" ry="5"/><path fill="#2e4848" fill-opacity=".502" d="M93.408 69.768l26.304-2.344-14.888-2.602-10.764-1.427z"/><path fill="#e5e2e2" fill-opacity=".502" d="M122 107.015l-22.474 16.241 37.397-11.235-27.727-32.499z"/><ellipse fill="#00140d" fill-opacity=".502" cx="96" cy="89" rx="1" ry="47"/></g></svg>