<svg xmlns="http://www.w3.org/2000/svg" width="1024" height="696"><path fill="#548cae" d="M0 0h1024v696H0z"/><ellipse fill="#fff" fill-opacity=".502" rx="1" ry="1" transform="rotate(178.681 353.42 98.89) scale(764.26847 122.2695)"/><ellipse fill="#002556" fill-opacity=".502" rx="1" ry="1" transform="rotate(-5.798 5286.861 -2488.174) scale(783.3733 179.57854)"/><ellipse fill="#ffceb2" fill-opacity=".502" rx="1" ry="1" transform="matrix(170.0356 -19.715 9.1107 78.57682 840.503 643.587)"/><ellipse fill="#05b7ff" fill-opacity=".502" rx="1" ry="1" transform="matrix(-4.96551 -74.78553 911.87418 -60.54542 336.723 53.926)"/><ellipse fill="#fffcf6" fill-opacity=".502" rx="1" ry="1" transform="matrix(2.24095 85.8253 -365.34515 9.53937 696.025 210.045)"/><ellipse fill="#00325f" fill-opacity=".502" rx="1" ry="1" transform="rotate(25.846 -1144.014 701.55) scale(461.57283 221.16194)"/><ellipse fill="#ede4dc" fill-opacity=".502" rx="1" ry="1" transform="matrix(-230.68505 -70.25307 4.95914 -16.284 681.319 528.942)"/><ellipse fill="#003771" fill-opacity=".502" rx="1" ry="1" transform="rotate(-38.994 542.225 -126.974) scale(152.96197 40.09067)"/><ellipse fill="#f1eae3" fill-opacity=".502" rx="1" ry="1" transform="rotate(-94.49 377.052 21.081) scale(13.37908 154.31123)"/><ellipse fill="#006094" fill-opacity=".502" rx="1" ry="1" transform="matrix(467.56575 101.46186 -22.43224 103.37426 946.79 465.125)"/><ellipse fill="#85ccfe" fill-opacity=".502" rx="1" ry="1" transform="matrix(868.8278 -69.32582 4.1856 52.45608 819.633 82.975)"/><ellipse fill="#008ed8" fill-opacity=".502" rx="1" ry="1" transform="matrix(2.03533 72.64244 -385.74962 10.8081 209.135 30.45)"/><ellipse fill="#b6b7ca" fill-opacity=".502" rx="1" ry="1" transform="matrix(2.75454 -59.6934 147.8133 6.82083 854.208 289.912)"/><ellipse fill="#076c9d" fill-opacity=".502" rx="1" ry="1" transform="matrix(155.74347 18.37095 -7.97443 67.60482 607.03 603.921)"/><ellipse fill="#ffeada" fill-opacity=".502" rx="1" ry="1" transform="rotate(76.33 129.818 481.236) scale(71.5125 187.27951)"/><ellipse fill="#fecab0" fill-opacity=".502" rx="1" ry="1" transform="matrix(302.75504 -61.04926 5.52533 27.40117 812.46 681.855)"/><ellipse fill="#003660" fill-opacity=".502" rx="1" ry="1" transform="rotate(23.3 -1448.393 879.16) scale(309.93497 160.39777)"/><ellipse fill="#f5eff2" fill-opacity=".502" rx="1" ry="1" transform="rotate(88.84 36.54 227.803) scale(25.4684 321.99599)"/><ellipse fill="#0a89c9" fill-opacity=".502" rx="1" ry="1" transform="matrix(-.94986 15.39084 -135.63328 -8.37078 42.877 230.135)"/><ellipse fill="#00173f" fill-opacity=".502" rx="1" ry="1" transform="matrix(68.48518 -12.00107 3.45693 19.7273 974.54 694)"/><ellipse fill="#a7a1b7" fill-opacity=".502" rx="1" ry="1" transform="rotate(158.255 153.292 174.735) scale(81.05304 59.05762)"/><ellipse fill="#93a7b8" fill-opacity=".502" rx="1" ry="1" transform="matrix(110.75724 65.3486 -13.57711 23.01141 484.626 455.893)"/><ellipse fill="#00558b" fill-opacity=".502" rx="1" ry="1" transform="rotate(-153.78 399.656 113.374) scale(135.58926 76.21434)"/><ellipse fill="#00538a" fill-opacity=".502" rx="1" ry="1" transform="matrix(-10.46725 -13.20014 92.32857 -73.21335 210.027 285.862)"/><ellipse fill="#d3cad2" fill-opacity=".502" rx="1" ry="1" transform="rotate(142.636 366.029 312.986) scale(35.95848 20.69879)"/><ellipse fill="#004378" fill-opacity=".502" rx="1" ry="1" transform="rotate(-13.26 1512.898 -251.13) scale(175.3492 34.29444)"/><ellipse fill="#719ebd" fill-opacity=".502" rx="1" ry="1" transform="matrix(-90.92115 -47.11872 8.51641 -16.43343 494.492 333.741)"/><ellipse fill="#d8c9ca" fill-opacity=".502" rx="1" ry="1" transform="rotate(-114.984 162.432 71.53) scale(33.20906 105.78751)"/><ellipse fill="#005f8e" fill-opacity=".502" rx="1" ry="1" transform="rotate(122.201 353.063 486.962) scale(96.79569 135.20634)"/><ellipse fill="#f9f7f7" fill-opacity=".502" rx="1" ry="1" transform="rotate(84.236 359.919 600.074) scale(45.17121 488.64077)"/><ellipse fill="#bed1d6" fill-opacity=".502" rx="1" ry="1" transform="rotate(-79.596 501.204 42.04) scale(12.72336 20.24507)"/><ellipse fill="#008ed2" fill-opacity=".502" rx="1" ry="1" transform="rotate(83.56 143.294 162.63) scale(66.8833 653.82174)"/><ellipse fill="#e1d7c9" fill-opacity=".502" rx="1" ry="1" transform="rotate(-83.711 680.235 -155.095) scale(17.73442 31.51426)"/><ellipse fill="#45506b" fill-opacity=".502" rx="1" ry="1" transform="matrix(98.83046 -33.18694 6.36604 18.958 1022 556.621)"/><ellipse fill="#cdc8d1" fill-opacity=".502" rx="1" ry="1" transform="matrix(1.41089 -12.97593 119.01807 12.94096 989.127 332.58)"/><ellipse fill="#00608f" fill-opacity=".502" rx="1" ry="1" transform="rotate(72.543 1.106 577.39) scale(27.3318 121.06227)"/><ellipse fill="#9c9ea3" fill-opacity=".502" rx="1" ry="1" transform="matrix(-6.70063 16.5587 -21.39582 -8.65801 110.414 433.504)"/><ellipse fill="#eed6cd" fill-opacity=".502" rx="1" ry="1" transform="matrix(-69.14488 13.85657 -2.6729 -13.33787 403.06 393.78)"/><ellipse fill="#a4afc3" fill-opacity=".502" rx="1" ry="1" transform="matrix(79.57073 1.8049 -.47563 20.96849 565.172 492.018)"/><ellipse fill="#dfbbaf" fill-opacity=".502" rx="1" ry="1" transform="rotate(103.149 203.584 663.492) scale(33.97667 114.22685)"/><ellipse fill="#7f8daf" fill-opacity=".502" rx="1" ry="1" transform="rotate(-8.832 4405.429 -4481.67) scale(71.3914 49.99458)"/><ellipse fill="#005589" fill-opacity=".502" rx="1" ry="1" transform="matrix(224.57817 -2.4675 .24762 22.5371 282.802 359.366)"/><ellipse fill="#b5dfff" fill-opacity=".502" rx="1" ry="1" transform="rotate(87.104 366.926 530.589) scale(31.76341 213.76257)"/><ellipse fill="#005783" fill-opacity=".502" rx="1" ry="1" transform="rotate(22.707 -1042.615 1248.656) scale(276.12386 38.34256)"/><ellipse fill="#ffecda" fill-opacity=".502" rx="1" ry="1" transform="rotate(-59.901 572.37 -200.374) scale(11.51388 27.60088)"/><ellipse fill="#fcdbd0" fill-opacity=".502" rx="1" ry="1" transform="rotate(-91.692 309.123 19.124) scale(4 82.53973)"/><ellipse fill="#7b8ca0" fill-opacity=".502" rx="1" ry="1" transform="matrix(-41.3666 17.20042 -4.1555 -9.99389 251.688 435.175)"/><ellipse fill="#10527d" fill-opacity=".502" rx="1" ry="1" transform="rotate(78.228 -128.996 691.232) scale(10.23954 240.99504)"/><ellipse fill="#a8acc2" fill-opacity=".502" rx="1" ry="1" transform="matrix(182.80729 -40.10684 3.6459 16.61808 720.876 276.216)"/><ellipse fill="#004c7a" fill-opacity=".502" rx="1" ry="1" transform="matrix(-312.50804 -55.83889 7.8329 -43.83762 823.308 483.339)"/><ellipse fill="#ffecd3" fill-opacity=".502" rx="1" ry="1" transform="matrix(-117.03707 14.97017 -2.01277 -15.7359 715.423 694)"/><ellipse fill="#fbe0c9" fill-opacity=".502" rx="1" ry="1" transform="rotate(-62.808 762.857 -281.533) scale(7.83657 50.25188)"/><ellipse fill="#005286" fill-opacity=".502" rx="1" ry="1" transform="rotate(-63.315 715.89 -388.297) scale(112.37405 54.7427)"/><ellipse fill="#99a9a9" fill-opacity=".502" rx="1" ry="1" transform="rotate(77.936 -149.025 647.676) scale(63.19327 5.06578)"/><ellipse fill="#fff8e3" fill-opacity=".502" rx="1" ry="1" transform="matrix(-1.62226 -10.96051 69.33793 -10.26267 813.748 291.114)"/><ellipse fill="#49b3e9" fill-opacity=".502" rx="1" ry="1" transform="matrix(-352.26283 54.8125 -3.52623 -22.66196 494.213 69.92)"/><ellipse fill="#9d9bae" fill-opacity=".502" rx="1" ry="1" transform="rotate(-94.129 705.559 -125.14) scale(13.37154 107.51606)"/><ellipse fill="#779bc1" fill-opacity=".502" rx="1" ry="1" transform="rotate(158.547 462.583 243.42) scale(58.39486 38.69736)"/><ellipse fill="#036192" fill-opacity=".502" rx="1" ry="1" transform="rotate(-48.712 950.853 -709.456) scale(110.24098 92.01858)"/><ellipse fill="#0070b5" fill-opacity=".502" rx="1" ry="1" transform="rotate(172.144 58.585 5.027) scale(453.2839 36.83003)"/><ellipse fill="#eacbc2" fill-opacity=".502" rx="1" ry="1" transform="rotate(-75.654 429.258 -165.838) scale(21.60928 108.96631)"/><ellipse fill="#a38680" fill-opacity=".502" rx="1" ry="1" transform="matrix(-12.74468 -44.83517 70.49014 -20.03728 1022 624.269)"/><ellipse fill="#fff0ce" fill-opacity=".502" rx="1" ry="1" transform="rotate(-100.317 592.028 -36.424) scale(7.49841 38.47523)"/><ellipse fill="#066898" fill-opacity=".502" rx="1" ry="1" transform="matrix(-.16498 28.36235 -117.78538 -.68516 665.95 579.828)"/><ellipse fill="#076b9b" fill-opacity=".502" rx="1" ry="1" transform="rotate(23.858 -600.483 1236.956) scale(82.32161 22.07775)"/><ellipse fill="#004f80" fill-opacity=".502" rx="1" ry="1" transform="matrix(-171.73322 101.45419 -18.53592 -31.37607 220.05 539.928)"/><ellipse fill="#005c8b" fill-opacity=".502" rx="1" ry="1" transform="rotate(112.361 95.546 503.507) scale(89.09879 54.76465)"/><ellipse fill="#003662" fill-opacity=".502" rx="1" ry="1" transform="matrix(-77.12344 -21.68188 11.84512 -42.13365 146.845 391.012)"/><ellipse fill="#a7a7b8" fill-opacity=".502" rx="1" ry="1" transform="rotate(47.675 -268.047 826.905) scale(39.21132 17.63454)"/><ellipse fill="#115582" fill-opacity=".502" rx="1" ry="1" transform="matrix(46.10795 28.5244 -5.2923 8.55469 479.571 455.533)"/><ellipse fill="#003458" fill-opacity=".502" rx="1" ry="1" transform="rotate(112.03 -14.88 453.165) scale(68.05479 111.07224)"/><ellipse fill="#deccc4" fill-opacity=".502" rx="1" ry="1" transform="matrix(-21.68872 -5.70922 4.06735 -15.45142 677.265 535.755)"/><ellipse fill="#2998d0" fill-opacity=".502" rx="1" ry="1" transform="rotate(-98.54 168.98 62.903) scale(11.77549 25.4079)"/><ellipse fill="#0078b0" fill-opacity=".502" rx="1" ry="1" transform="matrix(-48.37613 38.20678 -9.92025 -12.56069 259.4 247.93)"/><ellipse fill="#85a7c3" fill-opacity=".502" rx="1" ry="1" transform="matrix(1.42452 10.23977 -42.07625 5.8535 280.745 280.275)"/><ellipse fill="#818998" fill-opacity=".502" rx="1" ry="1" transform="rotate(-149.604 107.228 199.744) scale(44.00203 8.95754)"/><ellipse fill="#fedfdb" fill-opacity=".502" rx="1" ry="1" transform="matrix(42.45644 23.6843 -2.44431 4.38167 7.803 255.543)"/><ellipse fill="#0375a7" fill-opacity=".502" rx="1" ry="1" transform="rotate(121.935 364.529 458.852) scale(28.47927 102.36452)"/><ellipse fill="#80c2ee" fill-opacity=".502" rx="1" ry="1" transform="matrix(380.15925 -38.67616 2.2241 21.86128 780.6 82.117)"/><ellipse fill="#006ba5" fill-opacity=".502" rx="1" ry="1" transform="matrix(69.47696 22.66887 -10.7802 33.03983 10.775 316.601)"/><ellipse fill="#01a9e5" fill-opacity=".502" rx="1" ry="1" transform="matrix(-397.59694 50.72764 -2.91542 -22.85072 259.568 61.024)"/><ellipse fill="#005a8c" fill-opacity=".502" rx="1" ry="1" transform="matrix(170.2923 -20.02592 2.56947 21.84977 329.889 371.972)"/><ellipse fill="#026d9e" fill-opacity=".502" rx="1" ry="1" transform="matrix(17.9629 51.07944 -63.64512 22.38182 634.171 356.638)"/><ellipse fill="#e2cbc2" fill-opacity=".502" rx="1" ry="1" transform="rotate(10.27 -2869.215 4984.767) scale(58.43679 21.4026)"/><ellipse fill="#cbabae" fill-opacity=".502" rx="1" ry="1" transform="matrix(67.78073 -20.58302 4.6211 15.21746 703.261 672.393)"/><ellipse fill="#788aa0" fill-opacity=".502" rx="1" ry="1" transform="rotate(-28.43 972.406 -253.675) scale(33.61721 11.42771)"/><ellipse fill="#003663" fill-opacity=".502" rx="1" ry="1" transform="matrix(-47.15872 -4.39745 18.92992 -203.00633 23.825 539.154)"/><ellipse fill="#fcded5" fill-opacity=".502" rx="1" ry="1" transform="rotate(-96.231 333.205 63.093) scale(5.60097 37.00473)"/><ellipse fill="#fff2e9" fill-opacity=".502" rx="1" ry="1" transform="rotate(174.898 344.521 124.73) scale(111.45528 50.80049)"/><ellipse fill="#7d9bc2" fill-opacity=".502" rx="1" ry="1" transform="matrix(-4.0017 -16.0735 46.59813 -11.60118 720.079 296.205)"/><ellipse fill="#fff2e5" fill-opacity=".502" rx="1" ry="1" transform="matrix(-2.76816 40.3988 -31.0757 -2.12933 940.84 229.342)"/><ellipse fill="#8ea3b4" fill-opacity=".502" rx="1" ry="1" transform="rotate(-119.844 334.097 157.788) scale(29.29993 10.33667)"/><ellipse fill="#e9d2ca" fill-opacity=".502" rx="1" ry="1" transform="matrix(-.41521 22.38893 -150.95304 -2.79948 499.43 270.525)"/><ellipse fill="#004972" fill-opacity=".502" rx="1" ry="1" transform="matrix(-5.94347 -16.53416 69.27228 -24.90101 575.147 549.245)"/><ellipse fill="#8da4c4" fill-opacity=".502" rx="1" ry="1" transform="matrix(-21.61207 -13.01193 29.65285 -49.2517 323.603 252.868)"/><ellipse fill="#f7dac3" fill-opacity=".502" rx="1" ry="1" transform="rotate(79.926 48.722 714.47) scale(11.60439 34.41105)"/><ellipse fill="#f9e4ce" fill-opacity=".502" rx="1" ry="1" transform="rotate(-162.009 331.35 207.49) scale(40.61679 4)"/><ellipse fill="#004b7d" fill-opacity=".502" rx="1" ry="1" transform="rotate(154.879 23.352 178.03) scale(180.31499 15.77466)"/><ellipse fill="#fde7df" fill-opacity=".502" rx="1" ry="1" transform="matrix(.49482 -14.91998 64.79997 2.14907 212.611 208.496)"/><ellipse fill="#959bb5" fill-opacity=".502" rx="1" ry="1" transform="matrix(84.82609 -25.37696 3.58163 11.9721 728.444 612.946)"/><ellipse fill="#f0e6dd" fill-opacity=".502" rx="1" ry="1" transform="matrix(.0625 7.1904 -48.61892 .42265 901.249 323.581)"/><ellipse fill="#d9cec9" fill-opacity=".502" rx="1" ry="1" transform="matrix(-55.35075 -.80754 .06963 -4.7729 349.782 332.993)"/><ellipse fill="#003e61" fill-opacity=".502" rx="1" ry="1" transform="matrix(-123.11357 34.9176 -6.21177 -21.90165 1020.891 690.518)"/><ellipse fill="#9a8c99" fill-opacity=".502" rx="1" ry="1" transform="matrix(-6.16897 -17.70643 41.26777 -14.3778 898.848 689.361)"/><ellipse fill="#ffe6cf" fill-opacity=".502" rx="1" ry="1" transform="rotate(170.863 68.852 136.122) scale(61.46264 8.6848)"/><ellipse fill="#279acf" fill-opacity=".502" rx="1" ry="1" transform="rotate(77.513 -109.925 154.398) scale(14.12531 45.43738)"/><ellipse fill="#8ca4ad" fill-opacity=".502" rx="1" ry="1" transform="rotate(55.173 -363.803 811.874) scale(25.09699 4)"/><ellipse fill="#6e96b2" fill-opacity=".502" rx="1" ry="1" transform="rotate(89.084 -77.982 260.865) scale(4 29.76741)"/><ellipse fill="#005485" fill-opacity=".502" rx="1" ry="1" transform="matrix(3.50684 -15.825 63.34161 14.03657 221.617 301.463)"/><ellipse fill="#40b3e9" fill-opacity=".502" rx="1" ry="1" transform="rotate(83.687 31.186 145.88) scale(12.31467 183.11269)"/><ellipse fill="#325377" fill-opacity=".502" rx="1" ry="1" transform="rotate(22.914 -970.086 2774.27) scale(63.60464 6.71332)"/><ellipse fill="#4786ac" fill-opacity=".502" rx="1" ry="1" transform="matrix(-42.60518 6.65051 -1.35576 -8.68539 541.401 613.137)"/><ellipse fill="#6ea1cd" fill-opacity=".502" rx="1" ry="1" transform="rotate(-171.705 433.209 122.25) scale(38.83752 10.41398)"/><ellipse fill="#004876" fill-opacity=".502" rx="1" ry="1" transform="matrix(-85.265 -33.45608 10.06277 -25.64562 352.569 453.51)"/><ellipse fill="#004c78" fill-opacity=".502" rx="1" ry="1" transform="matrix(3.52267 -19.59951 460.69315 82.80165 916.927 502.357)"/><ellipse fill="#004976" fill-opacity=".502" rx="1" ry="1" transform="matrix(-4.67477 11.38894 -31.75201 -13.03312 460.967 439.618)"/><ellipse fill="#0c6798" fill-opacity=".502" rx="1" ry="1" transform="rotate(82.401 31.208 687.603) scale(5.03136 108.02111)"/><ellipse fill="#a6a0a0" fill-opacity=".502" rx="1" ry="1" transform="rotate(-176.157 59.819 218.065) scale(13.99883 10.71346)"/><ellipse fill="#fffff5" fill-opacity=".502" rx="1" ry="1" transform="rotate(84.5 243.31 587.173) scale(22.87068 8.69531)"/><ellipse fill="#7592b5" fill-opacity=".502" rx="1" ry="1" transform="rotate(110.468 -71.065 159.12) scale(23.25129 30.02211)"/><ellipse fill="#d1bbb6" fill-opacity=".502" rx="1" ry="1" transform="matrix(-7.84639 10.00401 -80.2408 -62.93478 838.84 613.375)"/><ellipse fill="#036292" fill-opacity=".502" rx="1" ry="1" transform="matrix(-174.23303 -116.97475 7.96091 -11.85772 454.6 559.434)"/><ellipse fill="#b7e1fb" fill-opacity=".502" rx="1" ry="1" transform="matrix(-.64693 -14.3874 322.14033 -14.48494 519.294 147.81)"/><ellipse fill="#ffe2c7" fill-opacity=".502" rx="1" ry="1" transform="matrix(-3.1873 2.41685 -8.0718 -10.64492 224.987 443.111)"/><ellipse fill="#b1b6b0" fill-opacity=".502" rx="1" ry="1" transform="matrix(-9.73777 -14.55814 8.76155 -5.8605 431.607 447.906)"/><ellipse fill="#91a1bf" fill-opacity=".502" rx="1" ry="1" transform="matrix(-15.97546 24.20739 -13.50081 -8.90975 385.405 235.948)"/><ellipse fill="#002f59" fill-opacity=".502" rx="1" ry="1" transform="matrix(-7.09742 -18.7686 162.39079 -61.40872 116.558 515.068)"/><ellipse fill="#03588a" fill-opacity=".502" rx="1" ry="1" transform="rotate(44.545 -174.55 999.57) scale(16.3899 117.41758)"/><ellipse fill="#83a8b6" fill-opacity=".502" rx="1" ry="1" transform="matrix(-2.63845 4.34583 -9.79214 -5.94502 423.345 557.58)"/><ellipse fill="#4ba8de" fill-opacity=".502" rx="1" ry="1" transform="matrix(151.99209 -13.43727 1.46962 16.6232 958.144 20.128)"/><ellipse fill="#ceb9ba" fill-opacity=".502" rx="1" ry="1" transform="matrix(1.19638 -11.75787 43.9817 4.4752 1022 342.373)"/><ellipse fill="#e9d1c9" fill-opacity=".502" rx="1" ry="1" transform="matrix(.22512 5.78232 -109.03137 4.24477 399.533 397.933)"/><ellipse fill="#076d9c" fill-opacity=".502" rx="1" ry="1" transform="rotate(-65.2 799.321 -575.533) scale(43.80124 78.25978)"/><ellipse fill="#4aa2ce" fill-opacity=".502" rx="1" ry="1" transform="matrix(-107.53532 5.10256 -.18959 -3.9955 150.033 241.276)"/><ellipse fill="#044e7a" fill-opacity=".502" rx="1" ry="1" transform="rotate(-102.287 740.17 -127.23) scale(4 109.72948)"/><ellipse fill="#004278" fill-opacity=".502" rx="1" ry="1" transform="matrix(-.22719 6.3946 -22.91072 -.81398 406.75 323.413)"/><ellipse fill="#b4b1c0" fill-opacity=".502" rx="1" ry="1" transform="rotate(-86.368 335.261 -48.125) scale(9.26428 127.29441)"/><ellipse fill="#e6d3c8" fill-opacity=".502" rx="1" ry="1" transform="matrix(-58.18958 4.93195 -.85034 -10.03279 161.93 266.134)"/><ellipse fill="#afb6cd" fill-opacity=".502" rx="1" ry="1" transform="matrix(-12.29138 17.84776 -34.09877 -23.48311 839.092 249.578)"/><ellipse fill="#c7b0b1" fill-opacity=".502" rx="1" ry="1" transform="rotate(164.769 388.897 350.563) scale(123.43984 9.17827)"/><ellipse fill="#5d95bf" fill-opacity=".502" rx="1" ry="1" transform="rotate(17.327 -742.553 1105.327) scale(20.42662 36.65458)"/><ellipse fill="#005b8f" fill-opacity=".502" rx="1" ry="1" transform="matrix(-43.82693 -25.75974 5.66821 -9.64375 350.523 363.163)"/><ellipse fill="#bac6da" fill-opacity=".502" rx="1" ry="1" transform="rotate(69.344 -120.84 119.368) scale(25.51759 54.1375)"/><ellipse fill="#00406f" fill-opacity=".502" rx="1" ry="1" transform="matrix(52.05732 82.61887 -28.96892 18.25302 151.977 381.372)"/><ellipse fill="#03527c" fill-opacity=".502" rx="1" ry="1" transform="rotate(-78.535 614.877 -72.738) scale(29.08295 81.17696)"/><ellipse fill="#82a4c3" fill-opacity=".502" rx="1" ry="1" transform="matrix(13.64816 29.30628 -74.11445 34.51568 1007.714 290.448)"/><ellipse fill="#d6bdb1" fill-opacity=".502" rx="1" ry="1" transform="rotate(73.609 23.898 920.556) scale(27.26895 106.3288)"/><ellipse fill="#dbcec3" fill-opacity=".502" rx="1" ry="1" transform="matrix(10.40067 -.2516 .18597 7.68757 673.268 548.424)"/><ellipse fill="#003f6a" fill-opacity=".502" rx="1" ry="1" transform="rotate(-66.184 628.044 200.323) scale(182.1715 95.47283)"/><ellipse fill="#004a75" fill-opacity=".502" rx="1" ry="1" transform="matrix(3.00146 21.31282 -109.1535 15.37198 364.426 489.167)"/><ellipse fill="#2186b3" fill-opacity=".502" rx="1" ry="1" transform="rotate(170.645 264.022 190.756) scale(75.40069 11.76382)"/><ellipse fill="#fffcef" fill-opacity=".502" rx="1" ry="1" transform="rotate(94.685 163.383 352.377) scale(23.86374 115.8587)"/><ellipse fill="#063f62" fill-opacity=".502" rx="1" ry="1" transform="rotate(-87.825 790.157 -264.4) scale(46.6792 21.54366)"/><ellipse fill="#bba38a" fill-opacity=".502" rx="1" ry="1" transform="rotate(154.957 182.26 399.79) scale(4 22.11776)"/><ellipse fill="#00588a" fill-opacity=".502" rx="1" ry="1" transform="rotate(-18.247 1733.212 -328.42) scale(89.18815 15.16107)"/><ellipse fill="#f2ddca" fill-opacity=".502" rx="1" ry="1" transform="matrix(3.59867 -22.86299 55.88694 8.7967 794.445 686.008)"/><ellipse fill="#7ac0e9" fill-opacity=".502" rx="1" ry="1" transform="matrix(-295.62405 20.97887 -.89332 -12.58822 97.737 139.188)"/><ellipse fill="#579cce" fill-opacity=".502" rx="1" ry="1" transform="rotate(-175.539 410.52 115.684) scale(21.99574 4.84091)"/><ellipse fill="#ffdbbf" fill-opacity=".502" rx="1" ry="1" transform="matrix(-5.8002 2.0611 -2.51865 -7.08785 222.796 445.476)"/><ellipse fill="#004e80" fill-opacity=".502" rx="1" ry="1" transform="matrix(-6.5089 -16.18516 80.89754 -32.53312 116.8 468.14)"/><ellipse fill="#a6a9bc" fill-opacity=".502" rx="1" ry="1" transform="rotate(-44.375 856.203 -415.527) scale(22.55138 39.24902)"/><ellipse fill="#dfcfc5" fill-opacity=".502" rx="1" ry="1" transform="rotate(-85.125 572.75 -64.213) scale(4.90968 49.13155)"/><ellipse fill="#006094" fill-opacity=".502" rx="1" ry="1" transform="matrix(-12.09253 -21.24915 9.31837 -5.30292 383.97 622.265)"/><ellipse fill="#dfcecd" fill-opacity=".502" rx="1" ry="1" transform="rotate(20.071 -549.26 2568.8) scale(4.86732 26.5613)"/><ellipse fill="#0091d5" fill-opacity=".502" rx="1" ry="1" transform="rotate(83.33 121.145 170.535) scale(23.21637 668.13221)"/><ellipse fill="#ffd9cc" fill-opacity=".502" rx="1" ry="1" transform="rotate(42.959 -332.944 187.555) scale(8.80481 7.04722)"/><ellipse fill="#ddc2a9" fill-opacity=".502" rx="1" ry="1" transform="rotate(-134.096 401.795 229.32) scale(8.35461 6.07205)"/><ellipse fill="#6c97ba" fill-opacity=".502" rx="1" ry="1" transform="rotate(-156.672 292.422 119.714) scale(62.55919 6.91275)"/><ellipse fill="#003a67" fill-opacity=".502" rx="1" ry="1" transform="rotate(47.435 -515.566 287.4) scale(14.91378 70.81168)"/><ellipse fill="#004068" fill-opacity=".502" rx="1" ry="1" transform="matrix(-1.60573 -39.5254 23.83045 -.96812 406.303 470.595)"/><ellipse fill="#eed8cf" fill-opacity=".502" rx="1" ry="1" transform="matrix(127.93125 14.65356 -.4552 3.97402 75.2 256.074)"/><ellipse fill="#8499b5" fill-opacity=".502" rx="1" ry="1" transform="rotate(72.414 -23.487 796.994) scale(4 41.44636)"/><ellipse fill="#005d91" fill-opacity=".502" rx="1" ry="1" transform="matrix(9.07135 1.65708 -16.57493 90.7361 292.72 523.131)"/><ellipse fill="#3c719b" fill-opacity=".502" rx="1" ry="1" transform="matrix(-142.8136 -4.1868 .11722 -3.99828 349.117 416.493)"/><ellipse fill="#0b4571" fill-opacity=".502" rx="1" ry="1" transform="matrix(-55.4795 -42.15454 4.25441 -5.59922 226.02 425.726)"/><ellipse fill="#013c67" fill-opacity=".502" rx="1" ry="1" transform="matrix(62.02782 4.84785 -2.39973 30.7043 201.183 383.321)"/><ellipse fill="#f7e6db" fill-opacity=".502" rx="1" ry="1" transform="matrix(4.10786 13.7338 -53.03061 15.86177 423.323 258.61)"/><ellipse fill="#0065a3" fill-opacity=".502" rx="1" ry="1" transform="rotate(-79.484 186.215 100.379) scale(4 12.16441)"/><ellipse fill="#004f81" fill-opacity=".502" rx="1" ry="1" transform="matrix(53.79788 4.15978 -6.68925 86.51132 711.339 442.061)"/><ellipse fill="#68a8d0" fill-opacity=".502" rx="1" ry="1" transform="matrix(38.02787 24.57697 -6.21086 9.61005 106.618 237.429)"/><ellipse fill="#8f9fb6" fill-opacity=".502" rx="1" ry="1" transform="matrix(-1.6022 9.15875 -47.75815 -8.35464 517.236 493.262)"/><ellipse fill="#074f7a" fill-opacity=".502" rx="1" ry="1" transform="rotate(-103.43 558.607 113.751) scale(7.28852 125.34558)"/><ellipse fill="#94d2f8" fill-opacity=".502" rx="1" ry="1" transform="rotate(85.801 244.268 390.476) scale(17.38588 360.21748)"/><ellipse fill="#00284a" fill-opacity=".502" rx="1" ry="1" transform="rotate(110.455 -47.41 398.936) scale(60.34991 14.87705)"/><ellipse fill="#deccca" fill-opacity=".502" rx="1" ry="1" transform="rotate(170.108 277.842 165.584) scale(214.64586 4)"/><ellipse fill="#a8b1c5" fill-opacity=".502" rx="1" ry="1" transform="rotate(160.833 295.33 202.493) scale(15.80826 12.9204)"/><ellipse fill="#00689c" fill-opacity=".502" rx="1" ry="1" transform="rotate(89.821 166.993 508.906) scale(20.94059 116.8133)"/><ellipse fill="#4c738d" fill-opacity=".502" rx="1" ry="1" transform="rotate(-129.661 421.878 197.877) scale(48.69792 4)"/><ellipse fill="#719fc7" fill-opacity=".502" rx="1" ry="1" transform="rotate(-3.55 5297.362 -14230.015) scale(70.50564 4)"/><ellipse fill="#004c7a" fill-opacity=".502" rx="1" ry="1" transform="matrix(101.5807 -3.66078 .83828 23.26105 258.52 694)"/><ellipse fill="#046394" fill-opacity=".502" rx="1" ry="1" transform="rotate(-128.257 463.18 152.217) scale(18.89738 102.1131)"/><ellipse fill="#b8abba" fill-opacity=".502" rx="1" ry="1" transform="matrix(65.95316 -6.68716 .4035 3.9796 105.898 293.56)"/><ellipse fill="#0473a6" fill-opacity=".502" rx="1" ry="1" transform="matrix(.9279 -34.77581 49.48432 1.32036 887.37 380.744)"/><ellipse fill="#fdebdf" fill-opacity=".502" rx="1" ry="1" transform="matrix(-14.26367 2.27985 -3.7725 -23.6023 787.515 289.368)"/><ellipse fill="#005f8f" fill-opacity=".502" rx="1" ry="1" transform="matrix(-3.66099 14.74088 -119.39505 -29.65247 565.56 389.61)"/><ellipse fill="#0b73a6" fill-opacity=".502" rx="1" ry="1" transform="matrix(-8.82888 9.52688 -35.80096 -33.17798 21.088 297.543)"/><ellipse fill="#f4efe3" fill-opacity=".502" rx="1" ry="1" transform="rotate(-53.565 774.17 -743.636) scale(8.32388 18.70664)"/><ellipse fill="#259acd" fill-opacity=".502" rx="1" ry="1" transform="rotate(-64.743 205.774 63.163) scale(8.56964 28.90919)"/><ellipse fill="#a3a2b6" fill-opacity=".502" rx="1" ry="1" transform="matrix(-65.53458 -11.36272 1.63275 -9.4169 466.473 313.486)"/><ellipse fill="#f8ece5" fill-opacity=".502" rx="1" ry="1" transform="matrix(-329.61675 -19.20756 .81165 -13.9286 966.518 217.48)"/><ellipse fill="#debfad" fill-opacity=".502" rx="1" ry="1" transform="matrix(-12.51647 -5.27458 1.7246 -4.09245 364.072 537.352)"/><ellipse fill="#317198" fill-opacity=".502" rx="1" ry="1" transform="matrix(-1.20172 9.65238 -73.6201 -9.16568 855.959 551.174)"/><ellipse fill="#086393" fill-opacity=".502" rx="1" ry="1" transform="rotate(-93.334 597.582 -25.302) scale(14.94418 107.71622)"/><ellipse fill="#3098c9" fill-opacity=".502" rx="1" ry="1" transform="rotate(37.875 -194.04 549.452) scale(7.94262 37.55146)"/><ellipse fill="#ffefdd" fill-opacity=".502" rx="1" ry="1" transform="matrix(31.85275 3.87253 -.48275 3.97076 866.822 291.146)"/><ellipse fill="#5e83a5" fill-opacity=".502" rx="1" ry="1" transform="matrix(-1.2479 3.80036 -39.06382 -12.8272 462.746 409.61)"/><ellipse fill="#faf5f8" fill-opacity=".502" rx="1" ry="1" transform="rotate(90.749 219.588 385) scale(8.72014 103.97208)"/><ellipse fill="#023b5f" fill-opacity=".502" rx="1" ry="1" transform="matrix(-11.41616 -97.14005 20.73492 -2.43682 488.112 694)"/><ellipse fill="#4987b1" fill-opacity=".502" rx="1" ry="1" transform="rotate(-47.219 624.87 -397.507) scale(11.50216 25.15573)"/><ellipse fill="#0c608c" fill-opacity=".502" rx="1" ry="1" transform="rotate(162.105 273.545 319.797) scale(20.18314 21.27101)"/><ellipse fill="#b7a5a5" fill-opacity=".502" rx="1" ry="1" transform="rotate(69.034 -267.857 265.376) scale(4 9.82998)"/><ellipse fill="#838396" fill-opacity=".502" rx="1" ry="1" transform="rotate(162.427 398.021 416.81) scale(85.54996 7.65063)"/><ellipse fill="#9a8a94" fill-opacity=".502" rx="1" ry="1" transform="matrix(-139.31682 2.03145 -.05832 -3.99957 1010.97 617.377)"/><ellipse fill="#ebd0b8" fill-opacity=".502" rx="1" ry="1" transform="rotate(93.113 164.302 727.52) scale(4 108.20269)"/><ellipse fill="#ecd5cb" fill-opacity=".502" rx="1" ry="1" transform="rotate(159.007 180.281 234.508) scale(35.16892 7.70684)"/><ellipse fill="#6395bd" fill-opacity=".502" rx="1" ry="1" transform="rotate(-82.397 667.938 -388.368) scale(9.73647 37.24324)"/><ellipse fill="#dde6ed" fill-opacity=".502" rx="1" ry="1" transform="rotate(92.912 71.412 243.167) scale(7.58247 404.01468)"/><ellipse fill="#005f93" fill-opacity=".502" rx="1" ry="1" transform="rotate(87.86 -24.025 343.594) scale(17.2674 89.22942)"/><ellipse fill="#cdcfd6" fill-opacity=".502" rx="1" ry="1" transform="matrix(.99287 -26.23401 64.682 2.448 1011.366 235.968)"/><ellipse fill="#cfbbc1" fill-opacity=".502" rx="1" ry="1" transform="rotate(-64.285 693.59 -494.02) scale(16.11672 13.06368)"/><ellipse fill="#004976" fill-opacity=".502" rx="1" ry="1" transform="rotate(98.078 -70.283 547.482) scale(59.32843 31.67855)"/><ellipse fill="#024064" fill-opacity=".502" rx="1" ry="1" transform="rotate(-139.509 408.98 243.36) scale(40.3837 12.59679)"/><ellipse fill="#003258" fill-opacity=".502" rx="1" ry="1" transform="rotate(-90.688 397.667 139.492) scale(70.95808 13.46927)"/><ellipse fill="#f5e3da" fill-opacity=".502" rx="1" ry="1" transform="matrix(-.62944 7.34518 -100.1818 -8.58495 157.472 204.18)"/><ellipse fill="#005489" fill-opacity=".502" rx="1" ry="1" transform="matrix(16.806 2.9194 -5.75627 33.13688 172.27 454.122)"/><ellipse fill="#799dc7" fill-opacity=".502" rx="1" ry="1" transform="rotate(-78.406 568 -307.006) scale(7.1094 76.48769)"/><ellipse fill="#66b5e6" fill-opacity=".502" rx="1" ry="1" transform="matrix(1.24336 14.2023 -289.6977 25.362 775.763 62.032)"/><ellipse fill="#e0cebd" fill-opacity=".502" rx="1" ry="1" transform="matrix(-4.78374 3.88055 -9.99693 -12.3237 437.25 448.097)"/><ellipse fill="#758aaf" fill-opacity=".502" rx="1" ry="1" transform="rotate(68.975 1.593 886.438) scale(11.61573 22.57317)"/><ellipse fill="#aeb5c8" fill-opacity=".502" rx="1" ry="1" transform="matrix(.50133 5.61299 -60.04917 5.36333 998.303 298.16)"/><ellipse fill="#e1d2c7" fill-opacity=".502" rx="1" ry="1" transform="rotate(161.852 322.884 325.554) scale(20.62096 8.75995)"/><ellipse fill="#006eb1" fill-opacity=".502" rx="1" ry="1" transform="matrix(-2.92696 -15.76246 249.58885 -46.34655 83.165 2)"/><ellipse fill="#003153" fill-opacity=".502" rx="1" ry="1" transform="matrix(-7.89214 -2.56174 2.00382 -6.17331 1022 605.02)"/><ellipse fill="#004f7e" fill-opacity=".502" rx="1" ry="1" transform="matrix(1.17684 -13.05313 81.50152 7.348 208.875 308.625)"/><ellipse fill="#003e65" fill-opacity=".502" rx="1" ry="1" transform="matrix(72.63848 48.28118 -8.80648 13.24924 432.995 487.206)"/><ellipse fill="#c7bbc2" fill-opacity=".502" rx="1" ry="1" transform="matrix(-154.78082 18.55403 -.47608 -3.97157 427.801 278.774)"/><ellipse fill="#13a1e1" fill-opacity=".502" rx="1" ry="1" transform="matrix(.70338 -21.50725 86.3943 2.82547 736.565 2)"/><ellipse fill="#c6e1f5" fill-opacity=".502" rx="1" ry="1" transform="matrix(-114.1693 4.43726 -1.04946 -27.0023 944.026 153.817)"/><ellipse fill="#e9d6d6" fill-opacity=".502" rx="1" ry="1" transform="matrix(-17.1082 -8.27152 5.43327 -11.23777 361.478 214.921)"/><ellipse fill="#cbb3a8" fill-opacity=".502" rx="1" ry="1" transform="matrix(1.13846 10.2269 -95.4638 10.62702 939.388 661.377)"/><ellipse fill="linen" fill-opacity=".502" rx="1" ry="1" transform="matrix(5.1277 -8.18624 16.36262 10.24921 801.316 300.998)"/><ellipse fill="#005e90" fill-opacity=".502" rx="1" ry="1" transform="rotate(-85.613 695.786 -289.814) scale(36.62686 167.29453)"/><ellipse fill="#5586ae" fill-opacity=".502" rx="1" ry="1" transform="matrix(3.6103 -5.8948 34.11349 20.893 639.169 493.689)"/><ellipse fill="#002e53" fill-opacity=".502" rx="1" ry="1" transform="matrix(-21.7488 -38.94142 45.44867 -25.3831 2 652.184)"/><ellipse fill="#dec2ae" fill-opacity=".502" rx="1" ry="1" transform="matrix(10.79548 -3.36865 1.1915 3.81842 100.95 439.406)"/><ellipse fill="#decfc0" fill-opacity=".502" rx="1" ry="1" transform="rotate(-136.742 437.66 133.075) scale(22.4145 13.60217)"/><ellipse fill="#f3dbcf" fill-opacity=".502" rx="1" ry="1" transform="matrix(16.81507 1.80475 -.42686 3.97716 254.737 284.347)"/><ellipse fill="#025b8e" fill-opacity=".502" rx="1" ry="1" transform="matrix(-90.34838 -38.67756 4.36086 -10.18669 352.367 478.125)"/><ellipse fill="#e0c6c7" fill-opacity=".502" rx="1" ry="1" transform="rotate(170.625 124 176.318) scale(29.63832 4)"/><ellipse fill="#004f7e" fill-opacity=".502" rx="1" ry="1" transform="rotate(65.185 -104.26 586.76) scale(12.83654 28.94825)"/><ellipse fill="#e8d7cd" fill-opacity=".502" rx="1" ry="1" transform="matrix(59.6438 -37.63948 13.25405 21.00246 554.377 282.858)"/><ellipse fill="#dcccca" fill-opacity=".502" rx="1" ry="1" transform="matrix(-18.5471 -6.77495 1.37244 -3.75718 272.458 285.787)"/><ellipse fill="#8a91b0" fill-opacity=".502" rx="1" ry="1" transform="rotate(-4.1 4031.486 -1647.958) scale(60.54338 4)"/><ellipse fill="#ab989b" fill-opacity=".502" rx="1" ry="1" transform="rotate(-169.617 513.043 235.304) scale(22.42387 4.84805)"/><ellipse fill="#eeded0" fill-opacity=".502" rx="1" ry="1" transform="matrix(28.60557 5.44563 -.74804 3.92943 355.392 326.968)"/><ellipse fill="#f7ece3" fill-opacity=".502" rx="1" ry="1" transform="rotate(11.848 -930.695 4088.537) scale(70.9534 4)"/><ellipse fill="#00537f" fill-opacity=".502" rx="1" ry="1" transform="rotate(-34.95 1074.886 -356.112) scale(48.4282 7.69339)"/><ellipse fill="#003154" fill-opacity=".502" rx="1" ry="1" transform="matrix(12.5263 -2.19974 12.4518 70.9061 335.422 556.64)"/><ellipse fill="#ada9b7" fill-opacity=".502" rx="1" ry="1" transform="rotate(-64.608 691.555 -239.05) scale(9.00992 13.4154)"/><ellipse fill="#004473" fill-opacity=".502" rx="1" ry="1" transform="matrix(-179.22411 3.34037 -.44372 -23.80749 86.58 581.692)"/><ellipse fill="#a19ca9" fill-opacity=".502" rx="1" ry="1" transform="rotate(-82.939 374.672 74.221) scale(4 10.09989)"/><ellipse fill="#4d738c" fill-opacity=".502" rx="1" ry="1" transform="matrix(.51034 -6.25301 30.11438 2.45779 1022 469.89)"/><ellipse fill="#f4ebe5" fill-opacity=".502" rx="1" ry="1" transform="rotate(-61.407 675.064 -675.933) scale(39.99572 22.5358)"/><ellipse fill="#2f89b7" fill-opacity=".502" rx="1" ry="1" transform="rotate(-136.502 320.953 74.179) scale(21.01725 16.06904)"/><ellipse fill="#045a8c" fill-opacity=".502" rx="1" ry="1" transform="matrix(21.11325 -17.7085 10.97734 13.0879 392.776 368.39)"/><ellipse fill="#5f86a7" fill-opacity=".502" rx="1" ry="1" transform="matrix(.04157 3.99978 -9.29726 .09662 646.648 423.505)"/><ellipse fill="#6d889b" fill-opacity=".502" rx="1" ry="1" transform="rotate(-136.391 377.99 207.402) scale(23.69699 4)"/><ellipse fill="#d9c6cc" fill-opacity=".502" rx="1" ry="1" transform="rotate(49.657 -276.452 166.55) scale(4 10.75451)"/><ellipse fill="#6d7798" fill-opacity=".502" rx="1" ry="1" transform="matrix(2.34918 7.19535 -19.5184 6.37248 808.605 630.604)"/><ellipse fill="#8997b6" fill-opacity=".502" rx="1" ry="1" transform="matrix(.3403 -16.68943 58.66643 1.19624 335.529 304.27)"/><ellipse fill="#004475" fill-opacity=".502" rx="1" ry="1" transform="matrix(40.40644 45.05138 -60.19061 53.98478 2.925 400.275)"/><ellipse fill="#075d8c" fill-opacity=".502" rx="1" ry="1" transform="matrix(3.32888 -10.44972 38.9495 12.40781 429.2 330.831)"/><ellipse fill="#7a95b5" fill-opacity=".502" rx="1" ry="1" transform="rotate(-161.811 259.59 125.015) scale(22.51516 11.23793)"/><ellipse fill="#239aca" fill-opacity=".502" rx="1" ry="1" transform="rotate(173.358 58.968 125.903) scale(36.3035 4)"/><ellipse fill="#4e7aa4" fill-opacity=".502" rx="1" ry="1" transform="matrix(17.06787 2.33861 -1.71968 12.5507 719.084 610.732)"/><ellipse fill="#a0abc5" fill-opacity=".502" rx="1" ry="1" transform="rotate(172.48 353.315 165.7) scale(63.20611 5.61839)"/><ellipse fill="#aa9fb0" fill-opacity=".502" rx="1" ry="1" transform="rotate(76.675 -3.383 794.235) scale(17.10134 35.23387)"/><ellipse fill="#807986" fill-opacity=".502" rx="1" ry="1" transform="matrix(.31176 3.98783 -26.81198 2.0961 1008.029 642.086)"/><ellipse fill="#007db2" fill-opacity=".502" rx="1" ry="1" transform="matrix(16.92489 8.73486 -13.96856 27.06585 271.39 245.652)"/><ellipse fill="#e9cfca" fill-opacity=".502" rx="1" ry="1" transform="matrix(.12056 3.99818 -46.29595 1.39596 328.31 405.11)"/><ellipse fill="#6786b2" fill-opacity=".502" rx="1" ry="1" transform="rotate(6.889 -2361.502 7478.657) scale(35.75837 4)"/><ellipse fill="#c5b9c2" fill-opacity=".502" rx="1" ry="1" transform="matrix(32.21817 5.14911 -2.65993 16.64328 436.619 300.624)"/><ellipse fill="#ffecdd" fill-opacity=".502" rx="1" ry="1" transform="rotate(-172.629 400.638 125.114) scale(32.32774 8.76631)"/><ellipse fill="#00355d" fill-opacity=".502" rx="1" ry="1" transform="matrix(59.41061 12.88722 -7.23167 33.33829 192.06 642.015)"/><ellipse fill="#b3daf6" fill-opacity=".502" rx="1" ry="1" transform="rotate(-179.034 379.318 62.318) scale(218.5115 15.20249)"/><ellipse fill="#7190af" fill-opacity=".502" rx="1" ry="1" transform="rotate(-150.808 348.129 167.172) scale(46.04524 8.93544)"/><ellipse fill="#1b71a6" fill-opacity=".502" rx="1" ry="1" transform="rotate(-100.758 140.106 126.966) scale(4 37.93997)"/><ellipse fill="#8893ac" fill-opacity=".502" rx="1" ry="1" transform="matrix(4.4792 -3.88211 10.68993 12.3341 460.61 411.453)"/><ellipse fill="#b0b6ca" fill-opacity=".502" rx="1" ry="1" transform="rotate(113.183 355.628 418.377) scale(7.89366 84.02555)"/><ellipse fill="#004b7d" fill-opacity=".502" rx="1" ry="1" transform="rotate(149.684 45.879 350.149) scale(14.04004 70.39419)"/><ellipse fill="#fce3d0" fill-opacity=".502" rx="1" ry="1" transform="rotate(-135.408 105.5 111.385) scale(5.72412 20.86154)"/><ellipse fill="#ccc0c3" fill-opacity=".502" rx="1" ry="1" transform="rotate(42.797 -347.13 949.841) scale(50.28633 4)"/><ellipse fill="#005381" fill-opacity=".502" rx="1" ry="1" transform="rotate(23.146 -793.603 1611.287) scale(53.39842 28.68535)"/><ellipse fill="#f9d6c6" fill-opacity=".502" rx="1" ry="1" transform="rotate(-177.795 514.303 161.774) scale(32.06864 4)"/><ellipse fill="#0b6f9e" fill-opacity=".502" rx="1" ry="1" transform="rotate(-10.136 2195.029 -3346.8) scale(75.78004 23.32275)"/><ellipse fill="#b4dcf3" fill-opacity=".502" rx="1" ry="1" transform="rotate(6.17 -1407.517 2937.04) scale(127.19741 8.96752)"/><ellipse fill="#8ea3c2" fill-opacity=".502" rx="1" ry="1" transform="matrix(-11.74031 -7.85864 12.28556 -18.35385 392.62 231.533)"/><ellipse fill="#dbbab6" fill-opacity=".502" rx="1" ry="1" transform="rotate(63.209 -295.009 277.898) scale(4)"/><ellipse fill="#dcced3" fill-opacity=".502" rx="1" ry="1" transform="rotate(89.009 63.47 301.126) scale(30.15349 7.52578)"/><ellipse fill="#9cb2cf" fill-opacity=".502" rx="1" ry="1" transform="matrix(13.99102 2.23521 -1.24618 7.8003 312.79 233.875)"/><ellipse fill="#f6e9db" fill-opacity=".502" rx="1" ry="1" transform="matrix(41.08774 .74848 -.11204 6.1504 480.525 290.238)"/><ellipse fill="#12557d" fill-opacity=".502" rx="1" ry="1" transform="rotate(162.615 467.966 359.602) scale(104.0446 4)"/><ellipse fill="#003057" fill-opacity=".502" rx="1" ry="1" transform="matrix(32.0632 -14.1814 64.02785 144.76272 362.356 694)"/><ellipse fill="#95b2d4" fill-opacity=".502" rx="1" ry="1" transform="rotate(-98.429 157.821 56.458) scale(9.49402 32.07566)"/><ellipse fill="#b5aab7" fill-opacity=".502" rx="1" ry="1" transform="rotate(-80.365 767.321 -118.124) scale(4 64.91952)"/><ellipse fill="#196d9b" fill-opacity=".502" rx="1" ry="1" transform="rotate(111.688 57.395 494.743) scale(44.12812 19.53524)"/><ellipse fill="#043a5d" fill-opacity=".502" rx="1" ry="1" transform="matrix(48.63955 16.8435 -3.64727 10.53234 456.697 606.32)"/><ellipse fill="#025a8e" fill-opacity=".502" rx="1" ry="1" transform="matrix(-7.06078 -17.1036 83.35648 -34.41156 49.34 337.843)"/><ellipse fill="#a38b97" fill-opacity=".502" rx="1" ry="1" transform="rotate(-4.177 8576.207 -13772.517) scale(98.81574 4)"/><ellipse fill="#c9b5b8" fill-opacity=".502" rx="1" ry="1" transform="rotate(-151.826 93.852 126.502) scale(27.27927 10.6708)"/><ellipse fill="#036799" fill-opacity=".502" rx="1" ry="1" transform="matrix(6.61514 -11.2966 35.67613 20.89147 690.956 504.554)"/><ellipse fill="#6d8298" fill-opacity=".502" rx="1" ry="1" transform="rotate(-54.901 954.729 -732.248) scale(4.19093 12.33886)"/><ellipse fill="#026194" fill-opacity=".502" rx="1" ry="1" transform="rotate(94.659 -78.701 391.373) scale(33.24236 12.27647)"/><ellipse fill="#c5b6b3" fill-opacity=".502" rx="1" ry="1" transform="rotate(-141.458 273.34 201.186) scale(19.85866 4)"/><ellipse fill="#036095" fill-opacity=".502" rx="1" ry="1" transform="matrix(28.0531 -10.93081 18.69445 47.9779 789.908 374.895)"/><ellipse fill="#006aa1" fill-opacity=".502" rx="1" ry="1" transform="rotate(-84.598 174.053 148.799) scale(51.92148 4)"/><ellipse fill="#0a5f89" fill-opacity=".502" rx="1" ry="1" transform="rotate(24.987 -742.894 2265.693) scale(36.62268 44.84794)"/><ellipse fill="#bca1a3" fill-opacity=".502" rx="1" ry="1" transform="rotate(8.557 -3262.479 6723.825) scale(29.89304 4)"/><ellipse fill="#07527b" fill-opacity=".502" rx="1" ry="1" transform="matrix(1.82505 -10.50893 28.34195 4.92204 964.344 694)"/><ellipse fill="#65718d" fill-opacity=".502" rx="1" ry="1" transform="rotate(-174.812 513.26 251.035) scale(13.07572 4)"/><ellipse fill="#d7c9c0" fill-opacity=".502" rx="1" ry="1" transform="matrix(7.2392 -1.62181 4.16763 18.60286 618.394 501.858)"/><ellipse fill="#f8f1dd" fill-opacity=".502" rx="1" ry="1" transform="rotate(150.824 76.924 155.046) scale(10.7763 4)"/><ellipse fill="#80c2ee" fill-opacity=".502" rx="1" ry="1" transform="matrix(-.96712 -14.50655 274.15574 -18.27733 870.125 80.197)"/><ellipse fill="#f2e1d5" fill-opacity=".502" rx="1" ry="1" transform="matrix(-7.22474 -26.65006 23.66239 -6.4148 594.12 276.075)"/><ellipse fill="#086292" fill-opacity=".502" rx="1" ry="1" transform="rotate(170.724 155.489 237.337) scale(9.22635 35.92834)"/><ellipse fill="#073e69" fill-opacity=".502" rx="1" ry="1" transform="matrix(-109.9499 -36.40155 1.25719 -3.7973 217.433 465.148)"/><ellipse fill="#044d78" fill-opacity=".502" rx="1" ry="1" transform="matrix(-64.37186 25.80515 -7.02942 -17.53514 564.467 568.31)"/><ellipse fill="#c9e6fa" fill-opacity=".502" rx="1" ry="1" transform="matrix(-137.18925 2.29339 -.14955 -8.94616 646.541 152.632)"/><ellipse fill="#2279ab" fill-opacity=".502" rx="1" ry="1" transform="matrix(-4.58407 6.08268 -8.57495 -6.4623 52.148 267.091)"/><ellipse fill="#f3dfc7" fill-opacity=".502" rx="1" ry="1" transform="matrix(1.44715 7.614 -75.7668 14.4006 723.306 685.554)"/><ellipse fill="#aaaab6" fill-opacity=".502" rx="1" ry="1" transform="matrix(-30.53747 -18.90616 3.20676 -5.1796 522.378 455.729)"/><ellipse fill="#024d7d" fill-opacity=".502" rx="1" ry="1" transform="rotate(36.118 -302.98 1329.225) scale(36.78865 87.67722)"/><ellipse fill="#7f97b1" fill-opacity=".502" rx="1" ry="1" transform="rotate(103.075 12.988 348.204) scale(4 16.25264)"/><ellipse fill="#d3c9bd" fill-opacity=".502" rx="1" ry="1" transform="rotate(-133.275 299.19 125.883) scale(4)"/><ellipse fill="#1baae5" fill-opacity=".502" rx="1" ry="1" transform="rotate(79.951 215.923 315.63) scale(9.58953 214.4092)"/><ellipse fill="#5bb6e8" fill-opacity=".502" rx="1" ry="1" transform="matrix(-.80715 -10.31657 457.47273 -35.792 177.488 115.036)"/><ellipse fill="#002546" fill-opacity=".502" rx="1" ry="1" transform="matrix(-1.90821 11.7961 -13.2624 -2.1454 504.386 694)"/><ellipse fill="#004062" fill-opacity=".502" rx="1" ry="1" transform="rotate(-111.697 735.749 7.575) scale(16.35871 83.18091)"/><ellipse fill="#004971" fill-opacity=".502" rx="1" ry="1" transform="matrix(11.61718 -37.61435 33.06216 10.21124 443.152 503.2)"/><ellipse fill="#718db0" fill-opacity=".502" rx="1" ry="1" transform="rotate(45.732 -202.823 555.008) scale(9.27885 20.74726)"/><ellipse fill="#7dc6f0" fill-opacity=".502" rx="1" ry="1" transform="rotate(-3.316 2409.667 -4995.703) scale(217.62616 7.68832)"/><ellipse fill="#5081af" fill-opacity=".502" rx="1" ry="1" transform="rotate(32.945 -341.41 629.884) scale(4 24.89319)"/><ellipse fill="#6e92b8" fill-opacity=".502" rx="1" ry="1" transform="matrix(-6.58742 -3.335 19.18943 -37.90362 824.506 331.017)"/><ellipse fill="#76a2cb" fill-opacity=".502" rx="1" ry="1" transform="matrix(13.17557 -4.61972 4.40659 12.5677 891.149 308.254)"/><ellipse fill="#036799" fill-opacity=".502" rx="1" ry="1" transform="matrix(54.47533 -3.77868 2.01465 29.0442 637.363 600.31)"/><ellipse fill="#ecdbd4" fill-opacity=".502" rx="1" ry="1" transform="matrix(-25.4636 -11.48062 1.64408 -3.6465 897.88 281.633)"/><ellipse fill="#647095" fill-opacity=".502" rx="1" ry="1" transform="matrix(-5.89015 -6.82996 22.89438 -19.74411 623.462 694)"/><ellipse fill="#4980a5" fill-opacity=".502" rx="1" ry="1" transform="rotate(-3.94 4970.07 -2626.979) scale(44.60016 4)"/><ellipse fill="#fff0d9" fill-opacity=".502" rx="1" ry="1" transform="matrix(-.39417 7.01561 -19.23383 -1.08065 107.086 263.88)"/><ellipse fill="#a29da4" fill-opacity=".502" rx="1" ry="1" transform="rotate(46.728 -396.23 473.387) scale(13.1492 4)"/><ellipse fill="#49ace5" fill-opacity=".502" rx="1" ry="1" transform="matrix(196.62102 -15.11912 .7202 9.36599 693.712 42)"/><ellipse fill="#768caf" fill-opacity=".502" rx="1" ry="1" transform="rotate(173.363 339.57 315.002) scale(24.26298 4)"/><ellipse fill="#d8c2bb" fill-opacity=".502" rx="1" ry="1" transform="matrix(-45.88987 12.52925 -5.47882 -20.06683 838.281 595.648)"/><ellipse fill="#cca491" fill-opacity=".502" rx="1" ry="1" transform="rotate(145.177 170.85 418.419) scale(4)"/><ellipse fill="#f9e1c6" fill-opacity=".502" rx="1" ry="1" transform="rotate(-83.523 670.557 -134.678) scale(4.73199 28.91186)"/><ellipse fill="#e3cbbb" fill-opacity=".502" rx="1" ry="1" transform="matrix(72.78907 -20.40942 2.19183 7.81706 853.622 650.353)"/><ellipse fill="#98a2b5" fill-opacity=".502" rx="1" ry="1" transform="rotate(-76.552 565.765 -69.062) scale(4 21.64421)"/><ellipse fill="#fff9eb" fill-opacity=".502" rx="1" ry="1" transform="rotate(87.103 199.995 462.588) scale(21.42176 63.66551)"/><ellipse fill="#207eab" fill-opacity=".502" rx="1" ry="1" transform="matrix(18.99727 -.33256 .34503 19.70944 573.965 344.374)"/><ellipse fill="#cec5cd" fill-opacity=".502" rx="1" ry="1" transform="rotate(33.028 -164.513 1235.57) scale(5.49034 23.91026)"/><ellipse fill="#a29fb7" fill-opacity=".502" rx="1" ry="1" transform="matrix(-15.43174 -6.62343 2.58852 -6.03093 703.654 631.024)"/><ellipse fill="#fbeade" fill-opacity=".502" rx="1" ry="1" transform="rotate(-94.268 578.317 -236.46) scale(4 18.45077)"/><ellipse fill="#00284b" fill-opacity=".502" rx="1" ry="1" transform="matrix(-3.85531 -6.90472 38.9058 -21.72338 133.121 694)"/><ellipse fill="#023d69" fill-opacity=".502" rx="1" ry="1" transform="matrix(82.42596 -27.6904 2.87342 8.5533 20.506 454.608)"/><ellipse fill="#f2d3bb" fill-opacity=".502" rx="1" ry="1" transform="matrix(.96256 -3.88246 6.46362 1.6025 759.222 527.316)"/><ellipse fill="#457ca4" fill-opacity=".502" rx="1" ry="1" transform="rotate(-53.963 803.072 -382.741) scale(13.47784 14.87191)"/><ellipse fill="#fde6c8" fill-opacity=".502" rx="1" ry="1" transform="rotate(131.466 209.538 409.917) scale(4 38.19478)"/><ellipse fill="#f0e7e3" fill-opacity=".502" rx="1" ry="1" transform="matrix(-.03868 -3.99981 194.65414 -1.8824 280.757 200.404)"/><ellipse fill="#015a89" fill-opacity=".502" rx="1" ry="1" transform="rotate(-74.029 732.78 -70.49) scale(48.94074 20.3268)"/><ellipse fill="#025f8e" fill-opacity=".502" rx="1" ry="1" transform="rotate(34.351 -685.267 1017.599) scale(39.95741 16.90052)"/><ellipse fill="#004270" fill-opacity=".502" rx="1" ry="1" transform="matrix(57.11131 15.00787 -2.58035 9.8193 320.957 434.146)"/><ellipse fill="#9696b1" fill-opacity=".502" rx="1" ry="1" transform="rotate(7.696 -3633.616 5408.982) scale(17.418 4)"/><ellipse fill="#045d8e" fill-opacity=".502" rx="1" ry="1" transform="matrix(28.06679 -34.5949 11.76882 9.54802 410.855 352.647)"/><ellipse fill="#1d86b6" fill-opacity=".502" rx="1" ry="1" transform="matrix(4.83075 5.99445 -21.33767 17.1954 970.066 369.95)"/><ellipse fill="#eaecf0" fill-opacity=".502" rx="1" ry="1" transform="matrix(180.19191 19.74887 -1.19604 10.91283 574.146 184.929)"/><ellipse fill="#b0c5d7" fill-opacity=".502" rx="1" ry="1" transform="matrix(61.92168 1.223 -.30338 15.36046 1022 249.365)"/><ellipse fill="#006398" fill-opacity=".502" rx="1" ry="1" transform="rotate(-57.021 356.913 -100.447) scale(19.80308 14.78077)"/><ellipse fill="#f3e7df" fill-opacity=".502" rx="1" ry="1" transform="matrix(1.48016 -20.41149 57.38957 4.16168 1004.186 215.816)"/><ellipse fill="#025386" fill-opacity=".502" rx="1" ry="1" transform="matrix(-1.00212 -16.6065 52.61779 -3.17521 337.781 374.267)"/><ellipse fill="#f4e1d1" fill-opacity=".502" rx="1" ry="1" transform="rotate(100.204 43.083 315.997) scale(4 26.58771)"/><ellipse fill="#fdf4ee" fill-opacity=".502" rx="1" ry="1" transform="rotate(-69.069 603.865 -532.31) scale(5.95738 90.10924)"/><ellipse fill="#074c70" fill-opacity=".502" rx="1" ry="1" transform="rotate(-127.104 627.006 12.168) scale(16.79509 53.98783)"/><ellipse fill="#fff6df" fill-opacity=".502" rx="1" ry="1" transform="rotate(36.742 -31.348 1544.933) scale(10.90814 8.23424)"/><ellipse fill="#045e8b" fill-opacity=".502" rx="1" ry="1" transform="rotate(88.8 -89.302 473.507) scale(22.14978 5.55897)"/><ellipse fill="#888aa3" fill-opacity=".502" rx="1" ry="1" transform="rotate(76.649 -36.841 472.912) scale(4.32498 13.46787)"/><ellipse fill="#a9abc0" fill-opacity=".502" rx="1" ry="1" transform="matrix(1.50088 -18.56162 10.1881 .8238 304.344 305.799)"/><ellipse fill="#025c8c" fill-opacity=".502" rx="1" ry="1" transform="matrix(15.53615 -1.56647 2.3875 23.67906 232.816 512.077)"/><ellipse fill="#165a84" fill-opacity=".502" rx="1" ry="1" transform="matrix(-3.08537 2.54568 -26.03327 -31.55238 460.538 430.907)"/><ellipse fill="#4c81aa" fill-opacity=".502" rx="1" ry="1" transform="matrix(-.40152 -3.9798 34.95305 -3.52639 561.715 609.132)"/><ellipse fill="#fff5e9" fill-opacity=".502" rx="1" ry="1" transform="rotate(-9.941 1562.12 -2956.87) scale(73.43098 29.49367)"/><ellipse fill="#005f99" fill-opacity=".502" rx="1" ry="1" transform="rotate(94.041 -67.174 367.631) scale(19.62974 23.10052)"/><ellipse fill="#084f78" fill-opacity=".502" rx="1" ry="1" transform="matrix(1.99925 -14.43445 50.75297 7.02955 375.224 436.366)"/><ellipse fill="#cac0c5" fill-opacity=".502" rx="1" ry="1" transform="matrix(4.00173 -7.63978 46.25816 24.2301 553.222 295.83)"/><ellipse fill="#46b4ea" fill-opacity=".502" rx="1" ry="1" transform="matrix(-123.86139 16.00387 -1.28117 -9.9156 413.185 83.411)"/><ellipse fill="#fff0d6" fill-opacity=".502" rx="1" ry="1" transform="rotate(29.144 -424.962 462.918) scale(22.71718 4)"/><ellipse fill="#a49293" fill-opacity=".502" rx="1" ry="1" transform="rotate(-74.358 926.591 -309.622) scale(7.2711 22.72911)"/><ellipse fill="#a8abc3" fill-opacity=".502" rx="1" ry="1" transform="matrix(-31.01622 -3.34927 .46047 -4.2642 819.675 331.788)"/><ellipse fill="#6f9dc6" fill-opacity=".502" rx="1" ry="1" transform="matrix(-.53287 -3.96435 107.55745 -14.4573 837.604 311.893)"/><ellipse fill="#005e91" fill-opacity=".502" rx="1" ry="1" transform="matrix(-47.18462 22.86973 -17.15585 -35.3958 663.167 354.309)"/><ellipse fill="#97a5bb" fill-opacity=".502" rx="1" ry="1" transform="matrix(17.07559 10.46135 -2.08962 3.41079 549.763 358.929)"/><ellipse fill="#fcfbfb" fill-opacity=".502" rx="1" ry="1" transform="matrix(10.6671 -16.00069 22.9963 15.33081 489.086 209.013)"/><ellipse fill="#7fa7cd" fill-opacity=".502" rx="1" ry="1" transform="rotate(5.512 -2348.048 8704.487) scale(4 13.75456)"/><ellipse fill="#002a51" fill-opacity=".502" rx="1" ry="1" transform="rotate(53.663 -386.537 426.424) scale(8.56874 42.58411)"/><ellipse fill="#fff2e2" fill-opacity=".502" rx="1" ry="1" transform="matrix(17.90947 3.28735 -1.1433 6.22868 864.956 289.267)"/><ellipse fill="#6095c2" fill-opacity=".502" rx="1" ry="1" transform="matrix(-3.05436 15.32862 -8.98264 -1.78987 825.875 310.76)"/><ellipse fill="#d5e5f0" fill-opacity=".502" rx="1" ry="1" transform="rotate(177.392 182.255 96.726) scale(110.92138 13.04287)"/><ellipse fill="#1573a2" fill-opacity=".502" rx="1" ry="1" transform="rotate(-163.095 52.857 159.268) scale(33.29661 8.47322)"/><ellipse fill="#003e63" fill-opacity=".502" rx="1" ry="1" transform="matrix(2.01295 9.4078 -24.16062 5.16955 1022 563.318)"/><ellipse fill="#002d50" fill-opacity=".502" rx="1" ry="1" transform="rotate(143.587 93.915 401.53) scale(92.58405 8.28762)"/><ellipse fill="#668db5" fill-opacity=".502" rx="1" ry="1" transform="rotate(-154.443 390.714 180.793) scale(34.50333 4)"/><ellipse fill="#d9cdd2" fill-opacity=".502" rx="1" ry="1" transform="matrix(44.07942 -16.08354 1.37109 3.75768 361.056 220.237)"/><ellipse fill="#196290" fill-opacity=".502" rx="1" ry="1" transform="matrix(14.01638 -10.03614 3.19447 4.46137 807.846 361.991)"/><ellipse fill="#e2d0d1" fill-opacity=".502" rx="1" ry="1" transform="matrix(29.59162 -10.00404 3.18984 9.43543 2 208.21)"/><ellipse fill="#385e85" fill-opacity=".502" rx="1" ry="1" transform="rotate(-65.542 398.467 117.072) scale(4.80009 20.42423)"/><ellipse fill="#80b6dd" fill-opacity=".502" rx="1" ry="1" transform="matrix(-.00354 -4 28.90204 -.02557 228.126 230.097)"/><ellipse fill="#47698a" fill-opacity=".502" rx="1" ry="1" transform="matrix(-.24432 3.99253 -18.6114 -1.13892 1002.636 545.583)"/><ellipse fill="#012e53" fill-opacity=".502" rx="1" ry="1" transform="matrix(15.54076 3.84427 -7.18288 29.03734 260.776 562.218)"/><ellipse fill="#eed8d5" fill-opacity=".502" rx="1" ry="1" transform="rotate(-89.713 133.417 120.752) scale(4 103.3553)"/><ellipse fill="#002a4c" fill-opacity=".502" rx="1" ry="1" transform="matrix(38.05207 2.96704 -.50094 6.42453 221.49 665.275)"/><ellipse fill="#b4aebe" fill-opacity=".502" rx="1" ry="1" transform="rotate(-68.875 571.03 -110.227) scale(4 18.81578)"/><ellipse fill="#fff8ea" fill-opacity=".502" rx="1" ry="1" transform="rotate(-162.942 225.253 92.35) scale(11.63632 4)"/><ellipse fill="#004e80" fill-opacity=".502" rx="1" ry="1" transform="rotate(-125.616 220.56 280.715) scale(4 102.80588)"/><ellipse fill="#1b99cc" fill-opacity=".502" rx="1" ry="1" transform="rotate(167.929 -11.525 118.561) scale(76.84077 4)"/><ellipse fill="#9eacbc" fill-opacity=".502" rx="1" ry="1" transform="matrix(15.40956 5.33762 -1.30922 3.77968 741.504 527.686)"/><ellipse fill="#cfb9b9" fill-opacity=".502" rx="1" ry="1" transform="rotate(65.738 -141.594 903.032) scale(15.90485 8.45895)"/><ellipse fill="#d2cfc8" fill-opacity=".502" rx="1" ry="1" transform="rotate(-123.455 420.826 180.723) scale(4)"/><ellipse fill="#dacdc7" fill-opacity=".502" rx="1" ry="1" transform="matrix(-91.31637 10.84403 -.4717 -3.9721 383.992 391.997)"/><ellipse fill="#5e8bb0" fill-opacity=".502" rx="1" ry="1" transform="matrix(7.48242 -10.24308 14.28067 10.43181 480.147 324.654)"/><ellipse fill="#a7d3ed" fill-opacity=".502" rx="1" ry="1" transform="matrix(-190.55434 3.19684 -.08734 -5.2058 189.96 161.786)"/><ellipse fill="#88869d" fill-opacity=".502" rx="1" ry="1" transform="matrix(-.27872 -3.99028 46.28245 -3.23284 688.28 671.28)"/><ellipse fill="#84a4c6" fill-opacity=".502" rx="1" ry="1" transform="matrix(21.60619 -7.44403 5.18554 15.05096 708.847 300.865)"/><ellipse fill="#004372" fill-opacity=".502" rx="1" ry="1" transform="rotate(143.303 -38.513 249.89) scale(30.53747 41.59975)"/><ellipse fill="#958ca1" fill-opacity=".502" rx="1" ry="1" transform="matrix(3.00725 11.49337 -27.52447 7.20179 922.922 571.831)"/><ellipse fill="#014372" fill-opacity=".502" rx="1" ry="1" transform="matrix(-81.43813 -28.27377 3.34373 -9.6311 300.21 668.763)"/><ellipse fill="#e2d2cb" fill-opacity=".502" rx="1" ry="1" transform="rotate(82.707 10.841 462.6) scale(4 26.08714)"/><ellipse fill="#e0ceca" fill-opacity=".502" rx="1" ry="1" transform="matrix(6.65553 13.21578 -3.57254 1.79915 546.769 483.036)"/><ellipse fill="#8cacc9" fill-opacity=".502" rx="1" ry="1" transform="matrix(1.66842 -3.63543 20.51552 9.41527 922.95 280.685)"/><ellipse fill="#7e888d" fill-opacity=".502" rx="1" ry="1" transform="matrix(3.71836 -1.47437 3.17593 8.0097 414.993 554.268)"/><ellipse fill="#0c689c" fill-opacity=".502" rx="1" ry="1" transform="matrix(.59701 3.9552 -15.59535 2.35402 757.13 639.913)"/><ellipse fill="#004d77" fill-opacity=".502" rx="1" ry="1" transform="matrix(7.97467 -6.18078 12.71452 16.40476 482.852 443.712)"/><ellipse fill="#ddeaf7" fill-opacity=".502" rx="1" ry="1" transform="rotate(-176.329 396.647 71.247) scale(119.13119 8.86243)"/><ellipse fill="#6e8a9c" fill-opacity=".502" rx="1" ry="1" transform="matrix(-13.87565 -12.9625 2.73061 -2.92297 505.688 615.504)"/><ellipse fill="#00345c" fill-opacity=".502" rx="1" ry="1" transform="matrix(96.80136 -81.33173 8.0466 9.57709 96.745 673.7)"/><ellipse fill="#a9a298" fill-opacity=".502" rx="1" ry="1" transform="matrix(-3.62431 1.69244 -11.76334 -25.19082 524.16 695.918)"/><ellipse fill="#ffe6d1" fill-opacity=".502" rx="1" ry="1" transform="rotate(116.574 318.779 437.609) scale(4.46983 4)"/><ellipse fill="#a7b1c9" fill-opacity=".502" rx="1" ry="1" transform="rotate(-122.601 220.244 50.604) scale(4 8.66494)"/><ellipse fill="#006898" fill-opacity=".502" rx="1" ry="1" transform="matrix(13.17945 15.75403 -18.21437 15.23771 543.19 388.556)"/><ellipse fill="#678cb0" fill-opacity=".502" rx="1" ry="1" transform="rotate(16.614 -1467.173 2975.715) scale(15.14068 4)"/><ellipse fill="#003b67" fill-opacity=".502" rx="1" ry="1" transform="matrix(-44.42495 25.8832 -19.95215 -34.24512 176.779 385.182)"/><ellipse fill="#045581" fill-opacity=".502" rx="1" ry="1" transform="rotate(-75.165 620.512 -93.95) scale(14.7248 55.6969)"/><ellipse fill="#eccebc" fill-opacity=".502" rx="1" ry="1" transform="rotate(18.479 -1159.07 1550.014) scale(9.60744 4)"/><ellipse fill="#d4bbb0" fill-opacity=".502" rx="1" ry="1" transform="matrix(.01823 -3.99996 16.47096 .07508 116.5 441.87)"/><ellipse fill="#00335e" fill-opacity=".502" rx="1" ry="1" transform="matrix(-6.0547 -2.2196 12.15466 -33.15607 261.954 465.388)"/><ellipse fill="#0a4870" fill-opacity=".502" rx="1" ry="1" transform="rotate(-155.02 244.48 253.047) scale(9.2984 45.05477)"/><ellipse fill="#045688" fill-opacity=".502" rx="1" ry="1" transform="rotate(77.383 -96.66 371.413) scale(6.22633 75.89379)"/><ellipse fill="#e2d0d0" fill-opacity=".502" rx="1" ry="1" transform="rotate(172.24 319.412 159.317) scale(58.80576 6.64647)"/><ellipse fill="#015183" fill-opacity=".502" rx="1" ry="1" transform="matrix(106.77542 -22.44696 3.27555 15.5811 701.987 388.482)"/><ellipse fill="#0970a1" fill-opacity=".502" rx="1" ry="1" transform="rotate(-141.832 311.333 92.945) scale(4.32112 36.56025)"/><ellipse fill="#5d87b0" fill-opacity=".502" rx="1" ry="1" transform="rotate(-147.419 369.043 158.966) scale(16.63457 11.15069)"/><ellipse fill="#025b8d" fill-opacity=".502" rx="1" ry="1" transform="rotate(28.801 -525.072 835.919) scale(13.91142 24.27742)"/><ellipse fill="#98a2b9" fill-opacity=".502" rx="1" ry="1" transform="rotate(-70.127 633.368 -138.288) scale(4 52.46071)"/><ellipse fill="#467299" fill-opacity=".502" rx="1" ry="1" transform="rotate(-5.793 5955.264 -8338.118) scale(20.61892 4)"/><ellipse fill="#014974" fill-opacity=".502" rx="1" ry="1" transform="rotate(-114.518 420.344 171.609) scale(4 54.99353)"/><ellipse fill="#6383a9" fill-opacity=".502" rx="1" ry="1" transform="rotate(148.047 287.817 393.543) scale(14.41556 4.97383)"/><ellipse fill="#677987" fill-opacity=".502" rx="1" ry="1" transform="rotate(-40.353 912.741 -214.604) scale(4 10.77513)"/><ellipse fill="#033c68" fill-opacity=".502" rx="1" ry="1" transform="rotate(103.128 -125.168 214.653) scale(7.6643 197.73576)"/><ellipse fill="#f7e6da" fill-opacity=".502" rx="1" ry="1" transform="matrix(5.06852 5.90142 -16.96554 14.5711 387.841 269.887)"/><ellipse fill="#a8b3cb" fill-opacity=".502" rx="1" ry="1" transform="rotate(60.372 218.776 885.576) scale(5.92507 30.08886)"/><ellipse fill="#1671a4" fill-opacity=".502" rx="1" ry="1" transform="rotate(75.39 -183.559 163.029) scale(4 63.10731)"/><ellipse fill="#156a9c" fill-opacity=".502" rx="1" ry="1" transform="rotate(-156.661 160.216 107.32) scale(30.21591 4)"/><ellipse fill="#9aa0bb" fill-opacity=".502" rx="1" ry="1" transform="rotate(169.013 84.082 140.56) scale(9.34172 4)"/><ellipse fill="#8d9bba" fill-opacity=".502" rx="1" ry="1" transform="rotate(-146.47 72.283 122.133) scale(34.99588 4)"/><ellipse fill="#d2c2cc" fill-opacity=".502" rx="1" ry="1" transform="matrix(-20.80297 -21.82126 6.30479 -6.01058 415.822 227.537)"/><ellipse fill="#eee0e2" fill-opacity=".502" rx="1" ry="1" transform="matrix(85.42107 3.14142 -.147 3.9973 159.656 173.136)"/><ellipse fill="#fff5ec" fill-opacity=".502" rx="1" ry="1" transform="rotate(-168.745 229.919 84.36) scale(66.88553 5.32721)"/><ellipse fill="#73b9e4" fill-opacity=".502" rx="1" ry="1" transform="rotate(158.54 507.37 115.987) scale(105.06666 15.05087)"/><ellipse fill="#b8a5ab" fill-opacity=".502" rx="1" ry="1" transform="rotate(-176.49 438.617 297.78) scale(81.06675 4)"/><ellipse fill="#145583" fill-opacity=".502" rx="1" ry="1" transform="matrix(-4.13854 -.44555 1.63566 -15.19312 383.136 379.427)"/><ellipse fill="#e7d8c4" fill-opacity=".502" rx="1" ry="1" transform="matrix(20.04513 3.2946 -.64873 3.94704 614.744 511.825)"/><ellipse fill="#cbb9b6" fill-opacity=".502" rx="1" ry="1" transform="rotate(-44.015 1158.062 -702.86) scale(8.67195 60.17783)"/><ellipse fill="#025d8d" fill-opacity=".502" rx="1" ry="1" transform="rotate(-36.5 1161.815 14.914) scale(9.89424 23.24396)"/><ellipse fill="#00659c" fill-opacity=".502" rx="1" ry="1" transform="matrix(15.23641 2.3071 -7.2629 47.96527 2 316.377)"/><ellipse fill="#075282" fill-opacity=".502" rx="1" ry="1" transform="matrix(68.82137 .25362 -.03478 9.43806 121.342 309.84)"/><ellipse fill="#decfd0" fill-opacity=".502" rx="1" ry="1" transform="matrix(8.79556 -7.05947 16.71053 20.82005 922.946 256.708)"/><ellipse fill="#f7e7d5" fill-opacity=".502" rx="1" ry="1" transform="rotate(115.727 172.252 319.669) scale(4 41.89985)"/><ellipse fill="#ecd3cb" fill-opacity=".502" rx="1" ry="1" transform="matrix(-3.33202 -5.4317 5.9938 -3.67683 35.056 271.11)"/><ellipse fill="#016294" fill-opacity=".502" rx="1" ry="1" transform="rotate(93.816 8.166 336.323) scale(4 164.21477)"/><ellipse fill="#00284d" fill-opacity=".502" rx="1" ry="1" transform="matrix(78.0327 -61.69665 2.48085 3.13773 4.633 549.143)"/><ellipse fill="#cbada7" fill-opacity=".502" rx="1" ry="1" transform="matrix(11.3776 -2.61108 1.5263 6.65073 967.168 593.644)"/><ellipse fill="#eee3cd" fill-opacity=".502" rx="1" ry="1" transform="matrix(-1.91848 3.5099 -16.04326 -8.76909 584.691 508.311)"/><ellipse fill="#004979" fill-opacity=".502" rx="1" ry="1" transform="rotate(-94.505 245.559 63.744) scale(18.0468 30.04511)"/><ellipse fill="#083b60" fill-opacity=".502" rx="1" ry="1" transform="rotate(122.828 74.28 436.354) scale(4 40.17991)"/><ellipse fill="#998a90" fill-opacity=".502" rx="1" ry="1" transform="matrix(.41589 -3.97832 33.41994 3.49366 978.241 616.086)"/><ellipse fill="#005c86" fill-opacity=".502" rx="1" ry="1" transform="matrix(-3.158 -35.2505 12.66321 -1.13447 1022 442.342)"/><ellipse fill="#a9b5b2" fill-opacity=".502" rx="1" ry="1" transform="matrix(-1.53723 3.69282 -4.37306 -1.8204 511.125 646.655)"/><ellipse fill="#6b94b7" fill-opacity=".502" rx="1" ry="1" transform="matrix(-20.18406 9.07118 -3.45368 -7.6847 947.483 335.635)"/><ellipse fill="#fcede3" fill-opacity=".502" rx="1" ry="1" transform="matrix(3.85781 15.35271 -64.05293 16.09515 756.027 229.767)"/><ellipse fill="#0f73a2" fill-opacity=".502" rx="1" ry="1" transform="rotate(-62.075 580.085 -300.923) scale(12.77491 50.4354)"/><ellipse fill="#024f7f" fill-opacity=".502" rx="1" ry="1" transform="rotate(-66.959 553.07 137.037) scale(29.00905 11.83616)"/><ellipse fill="#636f87" fill-opacity=".502" rx="1" ry="1" transform="rotate(-113.756 683.204 -69.457) scale(4)"/></svg>